<mxfile host="app.diagrams.net" modified="2024-01-01T16:00:57.649Z" agent="Mozilla/5.0 (X11; Linux x86_64) AppleWebKit/537.36 (KHTML, like Gecko) Chrome/120.0.0.0 Safari/537.36" etag="d33oE8RrFJC5nwmzvxzR" version="22.1.16" type="github">
  <diagram name="Page-1" id="iJrtoi_mMbITnx3xQ07f">
    <mxGraphModel dx="1362" dy="793" grid="1" gridSize="10" guides="1" tooltips="1" connect="1" arrows="1" fold="1" page="1" pageScale="1" pageWidth="850" pageHeight="1100" math="0" shadow="0">
      <root>
        <mxCell id="0" />
        <mxCell id="1" parent="0" />
        <mxCell id="PyQaD-jkkVgFRWBNWxvS-1" value="Start" style="ellipse;whiteSpace=wrap;html=1;aspect=fixed;" vertex="1" parent="1">
          <mxGeometry x="390" y="30" width="80" height="80" as="geometry" />
        </mxCell>
        <mxCell id="PyQaD-jkkVgFRWBNWxvS-3" value="Sync with server &amp;amp;&lt;br&gt;Execute Binary" style="ellipse;whiteSpace=wrap;html=1;aspect=fixed;" vertex="1" parent="1">
          <mxGeometry x="390" y="190" width="80" height="80" as="geometry" />
        </mxCell>
        <mxCell id="PyQaD-jkkVgFRWBNWxvS-4" value="Ask Server to stop BT logging" style="ellipse;whiteSpace=wrap;html=1;aspect=fixed;" vertex="1" parent="1">
          <mxGeometry x="390" y="350" width="80" height="80" as="geometry" />
        </mxCell>
        <mxCell id="PyQaD-jkkVgFRWBNWxvS-5" value="Ask server to store csv" style="ellipse;whiteSpace=wrap;html=1;aspect=fixed;" vertex="1" parent="1">
          <mxGeometry x="390" y="490" width="80" height="80" as="geometry" />
        </mxCell>
        <mxCell id="PyQaD-jkkVgFRWBNWxvS-6" value="server write-back &amp;amp; shutdown succesful" style="ellipse;whiteSpace=wrap;html=1;aspect=fixed;" vertex="1" parent="1">
          <mxGeometry x="390" y="640" width="80" height="80" as="geometry" />
        </mxCell>
        <mxCell id="PyQaD-jkkVgFRWBNWxvS-9" value="" style="endArrow=classic;html=1;rounded=0;exitX=0.5;exitY=1;exitDx=0;exitDy=0;entryX=0.775;entryY=0.05;entryDx=0;entryDy=0;entryPerimeter=0;" edge="1" parent="1" source="PyQaD-jkkVgFRWBNWxvS-1" target="PyQaD-jkkVgFRWBNWxvS-3">
          <mxGeometry width="50" height="50" relative="1" as="geometry">
            <mxPoint x="550" y="90" as="sourcePoint" />
            <mxPoint x="470" y="340" as="targetPoint" />
          </mxGeometry>
        </mxCell>
        <mxCell id="PyQaD-jkkVgFRWBNWxvS-10" value="" style="endArrow=classic;html=1;rounded=0;exitX=0.313;exitY=0.988;exitDx=0;exitDy=0;exitPerimeter=0;entryX=0.613;entryY=-0.062;entryDx=0;entryDy=0;entryPerimeter=0;" edge="1" parent="1" source="PyQaD-jkkVgFRWBNWxvS-3" target="PyQaD-jkkVgFRWBNWxvS-4">
          <mxGeometry width="50" height="50" relative="1" as="geometry">
            <mxPoint x="410" y="440" as="sourcePoint" />
            <mxPoint x="480" y="330" as="targetPoint" />
          </mxGeometry>
        </mxCell>
        <mxCell id="PyQaD-jkkVgFRWBNWxvS-11" value="" style="endArrow=classic;html=1;rounded=0;" edge="1" parent="1" target="PyQaD-jkkVgFRWBNWxvS-5">
          <mxGeometry width="50" height="50" relative="1" as="geometry">
            <mxPoint x="440" y="430" as="sourcePoint" />
            <mxPoint x="470" y="400" as="targetPoint" />
          </mxGeometry>
        </mxCell>
        <mxCell id="PyQaD-jkkVgFRWBNWxvS-12" value="" style="endArrow=classic;html=1;rounded=0;exitX=0.35;exitY=1.013;exitDx=0;exitDy=0;exitPerimeter=0;entryX=0.65;entryY=0.038;entryDx=0;entryDy=0;entryPerimeter=0;" edge="1" parent="1" source="PyQaD-jkkVgFRWBNWxvS-5" target="PyQaD-jkkVgFRWBNWxvS-6">
          <mxGeometry width="50" height="50" relative="1" as="geometry">
            <mxPoint x="430" y="460" as="sourcePoint" />
            <mxPoint x="480" y="410" as="targetPoint" />
          </mxGeometry>
        </mxCell>
        <mxCell id="PyQaD-jkkVgFRWBNWxvS-13" value="" style="whiteSpace=wrap;html=1;fillColor=none;imageAspect=0;connectable=1;resizeWidth=1;resizeHeight=1;autosize=1;rounded=1;strokeWidth=2;dashed=1;" vertex="1" parent="1">
          <mxGeometry x="360" y="20" width="140" height="710" as="geometry" />
        </mxCell>
      </root>
    </mxGraphModel>
  </diagram>
</mxfile>
